<?xml version="1.0" encoding="UTF-8"?>
<svg version="1.1" xmlns="http://www.w3.org/2000/svg" width="32" height="32">
<path d="M0 0 C1.134375 0.020625 2.26875 0.04125 3.4375 0.0625 C3.4375 2.3725 3.4375 4.6825 3.4375 7.0625 C4.0975 6.7325 4.7575 6.4025 5.4375 6.0625 C5.4375 5.4025 5.4375 4.7425 5.4375 4.0625 C8.4375 5.0625 8.4375 5.0625 10.4375 8.0625 C10.51655064 10.39449388 10.52548769 12.73082622 10.4375 15.0625 C9.4475 15.0625 8.4575 15.0625 7.4375 15.0625 C7.4375 15.7225 7.4375 16.3825 7.4375 17.0625 C6.7775 17.0625 6.1175 17.0625 5.4375 17.0625 C5.4375 17.7225 5.4375 18.3825 5.4375 19.0625 C6.79875 19.18625 6.79875 19.18625 8.1875 19.3125 C12.00374985 20.19317304 13.21632836 20.85414097 15.4375 24.0625 C15.7675 26.7025 16.0975 29.3425 16.4375 32.0625 C5.8775 32.0625 -4.6825 32.0625 -15.5625 32.0625 C-14.5625 24.0625 -14.5625 24.0625 -13.29296875 22.1875 C-9.99404105 19.78220588 -8.7667754 19.0625 -4.5625 19.0625 C-4.5625 18.4025 -4.5625 17.7425 -4.5625 17.0625 C-5.2225 17.0625 -5.8825 17.0625 -6.5625 17.0625 C-6.5625 16.4025 -6.5625 15.7425 -6.5625 15.0625 C-7.5525 15.0625 -8.5425 15.0625 -9.5625 15.0625 C-10.3065423 9.11016161 -7.93215168 5.69162805 -4.5625 1.0625 C-3.5625 0.0625 -3.5625 0.0625 0 0 Z M-3.5625 3.0625 C-4.2225 4.3825 -4.8825 5.7025 -5.5625 7.0625 C-4.5725 7.0625 -3.5825 7.0625 -2.5625 7.0625 C-2.8925 5.7425 -3.2225 4.4225 -3.5625 3.0625 Z M-5.5625 11.0625 C-5.2325 12.3825 -4.9025 13.7025 -4.5625 15.0625 C-1.2625 15.0625 2.0375 15.0625 5.4375 15.0625 C5.7675 13.7425 6.0975 12.4225 6.4375 11.0625 C2.4775 11.0625 -1.4825 11.0625 -5.5625 11.0625 Z M-2.5625 19.0625 C-2.8925 20.3825 -3.2225 21.7025 -3.5625 23.0625 C-1.0875 24.0525 -1.0875 24.0525 1.4375 25.0625 C2.4275 24.0725 3.4175 23.0825 4.4375 22.0625 C4.1075 21.0725 3.7775 20.0825 3.4375 19.0625 C1.4575 19.0625 -0.5225 19.0625 -2.5625 19.0625 Z M-9.5625 22.0625 C-9.5625 22.7225 -9.5625 23.3825 -9.5625 24.0625 C-8.2425 24.0625 -6.9225 24.0625 -5.5625 24.0625 C-5.5625 23.4025 -5.5625 22.7425 -5.5625 22.0625 C-6.8825 22.0625 -8.2025 22.0625 -9.5625 22.0625 Z M7.4375 22.0625 C7.1075 22.7225 6.7775 23.3825 6.4375 24.0625 C7.7575 24.0625 9.0775 24.0625 10.4375 24.0625 C10.4375 23.4025 10.4375 22.7425 10.4375 22.0625 C9.4475 22.0625 8.4575 22.0625 7.4375 22.0625 Z M-12.5625 26.0625 C-12.8925 27.3825 -13.2225 28.7025 -13.5625 30.0625 C-12.5725 30.0625 -11.5825 30.0625 -10.5625 30.0625 C-10.5625 28.7425 -10.5625 27.4225 -10.5625 26.0625 C-11.2225 26.0625 -11.8825 26.0625 -12.5625 26.0625 Z M-4.5625 25.0625 C-5.2225 25.7225 -5.8825 26.3825 -6.5625 27.0625 C-5.2425 26.7325 -3.9225 26.4025 -2.5625 26.0625 C-3.2225 25.7325 -3.8825 25.4025 -4.5625 25.0625 Z M3.4375 26.0625 C7.4375 27.0625 7.4375 27.0625 7.4375 27.0625 Z M11.4375 26.0625 C11.4375 27.3825 11.4375 28.7025 11.4375 30.0625 C12.4275 30.0625 13.4175 30.0625 14.4375 30.0625 C14.1075 28.7425 13.7775 27.4225 13.4375 26.0625 C12.7775 26.0625 12.1175 26.0625 11.4375 26.0625 Z M-8.5625 27.0625 C-7.5625 30.0625 -7.5625 30.0625 -7.5625 30.0625 Z M-2.5625 27.0625 C-1.5725 28.5475 -1.5725 28.5475 -0.5625 30.0625 C-0.5625 29.0725 -0.5625 28.0825 -0.5625 27.0625 C-1.2225 27.0625 -1.8825 27.0625 -2.5625 27.0625 Z M1.4375 27.0625 C1.4375 28.0525 1.4375 29.0425 1.4375 30.0625 C2.0975 30.0625 2.7575 30.0625 3.4375 30.0625 C3.4375 29.0725 3.4375 28.0825 3.4375 27.0625 C2.7775 27.0625 2.1175 27.0625 1.4375 27.0625 Z " fill="#B9972E" transform="translate(15.5625,-0.0625)"/>
<path d="M0 0 C0.99 0.33 1.98 0.66 3 1 C2.01 1 1.02 1 0 1 C0 0.67 0 0.34 0 0 Z " fill="#CBB122" transform="translate(19,2)"/>
</svg>
